# xmcd
#
# Track frame offsets: 
#        150
#        28152
#        48825
#        73875
#        88800
#        111475
#        121575
#        139050
#        157750
#        177600
#        194175
#        212100
#        239510
#        253150
#        275925
#        298147
#        328650
#
# Disc length: 4611 seconds
#
# Revision: 2
# Processed by: cddbd v1.4PL0 Copyright (c) Steve Scherf et al.
# Submitted via: ExactAudioCopy v0.90b4
#
DISCID=1a120111
DTITLE=Van Morrison - The Church Of Our Lady St. Mary
DYEAR=1990
DGENRE=Celtic
TTITLE0=Did Ye Get Healed
TTITLE1=Whenever God Shines His Light
TTITLE2=It's All In The Game
TTITLE3=Orangefield
TTITLE4=When Will I Ever Learn To Live In God
TTITLE5=Full Force Gale
TTITLE6=Beautiful Vision
TTITLE7=Dweller On The Threshold
TTITLE8=Vanlose Stairway
TTITLE9=Give Me My Rapture
TTITLE10=Bright Side Of The Road
TTITLE11=So Quiet In Here
TTITLE12=Benediction (Thank God For Self Love)
TTITLE13=Into The Mystic
TTITLE14=She Gives Me Religion
TTITLE15=Northern Muse (Solid Ground)
TTITLE16=Down By The Riverside
EXTD=
EXTT0=
EXTT1=
EXTT2=
EXTT3=
EXTT4=
EXTT5=
EXTT6=
EXTT7=
EXTT8=
EXTT9=
EXTT10=
EXTT11=
EXTT12=
EXTT13=
EXTT14=
EXTT15=
EXTT16=
PLAYORDER=
